# xmcd CD database file
#
# Track frame offsets:
#	150
#	5472
#	20999
#	36558
#	54078
#	73949
#	92139
#	110642
#	129688
#	148646
#	167502
#	187081
#	209473
#
# Disc length: 3149 seconds
#
# Revision: 5
# Processed by: cddbd v1.5.1PL2 Copyright (c) Steve Scherf et al.
# Submitted via: CDex 1.51
#
DISCID=c50c4b0d
DTITLE=ZEEBRA - TOKYO'S FINEST
DYEAR=2003
DGENRE=Hip-Hop
TTITLE0=Intro
TTITLE1=Touch the sky
TTITLE2=ウィークエンド feat. MIHO BROWN and Tyler
TTITLE3=SUPATECH (what's my name?)
TTITLE4=Teenage Love
TTITLE5=The System
TTITLE6=東京's Finest feat. BIG-O
TTITLE7=Perfect Queen
TTITLE8=男たちの蛮歌 feat. OJ and ST, KM-MARKIT, UZI
TTITLE9=BIG BIG MONEY feat. HIRO
TTITLE10=burnitup feat. FIRE BALL
TTITLE11=AFTER PARTY feat. 安室奈美恵
TTITLE12=GOLDEN MIC (REMIX) feat. KASHI DA HANDSOME, AI, 童子-T, 般若
EXTD=YEAR: 2003
EXTT0=
EXTT1=
EXTT2=
EXTT3=
EXTT4=
EXTT5=
EXTT6=
EXTT7=
EXTT8=
EXTT9=
EXTT10=
EXTT11=
EXTT12=
PLAYORDER=
